<svg width="40" height="40" fill="none" xmlns="http://www.w3.org/2000/svg"><path d="M9.333 26.333c-2.206 0-4 1.794-4 4s1.794 4 4 4 4-1.794 4-4-1.794-4-4-4zm0 6.667a2.67 2.67 0 01-2.666-2.667 2.67 2.67 0 012.666-2.666A2.67 2.67 0 0112 30.333 2.67 2.67 0 019.333 33zM32 26.333c-2.206 0-4 1.794-4 4s1.794 4 4 4 4-1.794 4-4-1.794-4-4-4zM32 33a2.67 2.67 0 01-2.667-2.667A2.67 2.67 0 0132 27.667a2.67 2.67 0 012.667 2.666A2.67 2.67 0 0132 33z" fill="#EC692C"/><path d="M39.894 22.64l-6-9.334a.667.667 0 00-.56-.306H26a.666.666 0 00-.667.667v16.666c0 .369.298.667.667.667h2.667v-1.333h-2V14.333h6.302l5.698 8.863v6.47h-3.334V31h4a.666.666 0 00.667-.667V23a.665.665 0 00-.106-.36z" fill="#EC692C"/><path d="M29.333 21.667V17h5.334v-1.333h-6a.666.666 0 00-.667.666v6c0 .369.298.667.667.667h10v-1.334h-9.334zM26 8.333H.667A.667.667 0 000 9v21.333c0 .369.299.667.667.667H6v-1.333H1.333v-20h24v20H12.667V31H26a.666.666 0 00.667-.667V9A.666.666 0 0026 8.333z" fill="#EC692C"/><path d="M4.667 27h-4v1.333h4V27zm20.666 0H14v1.333h11.333V27zm14 0h-2.666v1.333h2.666V27zM26 11H2.667v1.333H26V11zM10 29.667H8.667V31H10v-1.333zm22.667 0h-1.334V31h1.334v-1.333zM12 5.667H2.667V7H12V5.667zm-10.667 0H0V7h1.333V5.667z" fill="#EC692C"/></svg>