<svg width="37" height="37" fill="none" xmlns="http://www.w3.org/2000/svg"><path d="M29.868 32.195l-6.13-10.671a9.389 9.389 0 10-10.21-.463L7.132 32.195a.506.506 0 00.706.681l3.143-1.956.948 1.766a.506.506 0 00.885.013l5.68-9.892h.012l5.68 9.891a.508.508 0 00.44.255h.006a.506.506 0 00.439-.267l.948-1.766 3.143 1.956a.506.506 0 00.706-.68zM10.612 13.434a8.374 8.374 0 118.375 8.374 8.384 8.384 0 01-8.375-8.374zm1.778 17.971l-.772-1.439a.505.505 0 00-.713-.19l-1.893 1.178 5.368-9.347a9.31 9.31 0 003.02 1.076l-5.01 8.722zm13.705-1.629a.506.506 0 00-.713.19l-.772 1.44-4.946-8.613a9.319 9.319 0 003.176-.803l5.148 8.965-1.893-1.179z" fill="#EC692C"/><path d="M26.168 13.434a7.182 7.182 0 10-7.18 7.18 7.19 7.19 0 007.18-7.18zm-13.35 0a6.17 6.17 0 116.17 6.169 6.176 6.176 0 01-6.17-6.17z" fill="#EC692C"/><path d="M20.756 16.966a.505.505 0 00.734-.533l-.337-1.97 1.43-1.396a.506.506 0 00-.28-.862l-1.978-.287-.884-1.793a.506.506 0 00-.907 0l-.885 1.793-1.978.287a.505.505 0 00-.28.862l1.43 1.396-.337 1.97a.505.505 0 00.734.533l1.77-.93 1.768.93zm-3.102-1.373l.21-1.221a.506.506 0 00-.145-.448l-.887-.865 1.226-.179a.505.505 0 00.381-.276l.55-1.112.549 1.112a.505.505 0 00.38.276l1.227.179-.887.865a.505.505 0 00-.145.448l.21 1.221-1.099-.578a.505.505 0 00-.47 0l-1.1.578z" fill="#EC692C"/></svg>